<svg width="32" height="32" viewBox="0 0 32 32" fill="none" xmlns="http://www.w3.org/2000/svg">
<g clip-path="url(#clip0)">
<path d="M22.1428 18.9887C25.9841 13.5646 24.6994 6.05364 19.2752 2.2133C13.851 -1.62703 6.34008 -0.343251 2.49974 5.08186C-1.3406 10.506 -0.0568126 18.016 5.36829 21.8564C9.23983 24.5974 14.3584 24.8084 18.442 22.3969L27.3146 31.2163C28.2727 32.2248 29.8666 32.2652 30.8751 31.3072C31.8836 30.3501 31.924 28.7561 30.9669 27.7476C30.9366 27.7155 30.9072 27.6862 30.8751 27.6559L22.1428 18.9887ZM12.3139 19.8109C8.02762 19.8119 4.55251 16.3395 4.54976 12.0532C4.54884 7.76688 8.0212 4.29177 12.3084 4.28993C16.5892 4.28809 20.0625 7.75495 20.0708 12.0358C20.0781 16.323 16.6076 19.8036 12.3194 19.8109C12.3176 19.8109 12.3167 19.8109 12.3139 19.8109Z" fill="#E9E9EA"/>
</g>
<defs>
<clipPath id="clip0">
<rect width="32" height="32" fill="white"/>
</clipPath>
</defs>
</svg>
