<svg width="19" height="15" viewBox="0 0 19 15" fill="none" xmlns="http://www.w3.org/2000/svg">
<mask id="path-1-inside-1" fill="white">
<path d="M18.3679 2.35268C17.9886 1.95534 17.4648 1.72055 16.8688 1.72055H13.8707V1.68442C13.8707 1.2329 13.6901 0.799443 13.3831 0.51047C13.076 0.203435 12.6606 0.0228271 12.2091 0.0228271H6.79087C6.32129 0.0228271 5.90589 0.203435 5.59886 0.51047C5.29182 0.817504 5.11122 1.2329 5.11122 1.68442V1.72055H2.13118C1.53517 1.72055 1.01141 1.95534 0.632129 2.35268C0.252852 2.73195 0 3.27378 0 3.85172V12.846C0 13.442 0.234791 13.9658 0.632129 14.3451C1.01141 14.7243 1.55323 14.9772 2.13118 14.9772H16.8688C17.4648 14.9772 17.9886 14.7424 18.3679 14.3451C18.7471 13.9658 19 13.424 19 12.846V3.85172C19 3.25572 18.7652 2.73195 18.3679 2.35268ZM18.0608 12.846H18.0428C18.0428 13.1711 17.9163 13.4601 17.6996 13.6768C17.4829 13.8936 17.1939 14.02 16.8688 14.02H2.13118C1.80608 14.02 1.51711 13.8936 1.30038 13.6768C1.08365 13.4601 0.957224 13.1711 0.957224 12.846V3.85172C0.957224 3.52663 1.08365 3.23766 1.30038 3.02093C1.51711 2.8042 1.80608 2.67777 2.13118 2.67777H5.61692C5.88783 2.67777 6.10456 2.46104 6.10456 2.19013V1.66636C6.10456 1.46769 6.17681 1.28709 6.30323 1.16066C6.42966 1.03423 6.61027 0.961991 6.80893 0.961991H12.2091C12.4078 0.961991 12.5884 1.03423 12.7148 1.16066C12.8413 1.28709 12.9135 1.46769 12.9135 1.66636V2.19013C12.9135 2.46104 13.1302 2.67777 13.4011 2.67777H16.8869C17.212 2.67777 17.5009 2.8042 17.7177 3.02093C17.9344 3.23766 18.0608 3.52663 18.0608 3.85172V12.846Z"/>
</mask>
<path d="M18.3679 2.35268C17.9886 1.95534 17.4648 1.72055 16.8688 1.72055H13.8707V1.68442C13.8707 1.2329 13.6901 0.799443 13.3831 0.51047C13.076 0.203435 12.6606 0.0228271 12.2091 0.0228271H6.79087C6.32129 0.0228271 5.90589 0.203435 5.59886 0.51047C5.29182 0.817504 5.11122 1.2329 5.11122 1.68442V1.72055H2.13118C1.53517 1.72055 1.01141 1.95534 0.632129 2.35268C0.252852 2.73195 0 3.27378 0 3.85172V12.846C0 13.442 0.234791 13.9658 0.632129 14.3451C1.01141 14.7243 1.55323 14.9772 2.13118 14.9772H16.8688C17.4648 14.9772 17.9886 14.7424 18.3679 14.3451C18.7471 13.9658 19 13.424 19 12.846V3.85172C19 3.25572 18.7652 2.73195 18.3679 2.35268ZM18.0608 12.846H18.0428C18.0428 13.1711 17.9163 13.4601 17.6996 13.6768C17.4829 13.8936 17.1939 14.02 16.8688 14.02H2.13118C1.80608 14.02 1.51711 13.8936 1.30038 13.6768C1.08365 13.4601 0.957224 13.1711 0.957224 12.846V3.85172C0.957224 3.52663 1.08365 3.23766 1.30038 3.02093C1.51711 2.8042 1.80608 2.67777 2.13118 2.67777H5.61692C5.88783 2.67777 6.10456 2.46104 6.10456 2.19013V1.66636C6.10456 1.46769 6.17681 1.28709 6.30323 1.16066C6.42966 1.03423 6.61027 0.961991 6.80893 0.961991H12.2091C12.4078 0.961991 12.5884 1.03423 12.7148 1.16066C12.8413 1.28709 12.9135 1.46769 12.9135 1.66636V2.19013C12.9135 2.46104 13.1302 2.67777 13.4011 2.67777H16.8869C17.212 2.67777 17.5009 2.8042 17.7177 3.02093C17.9344 3.23766 18.0608 3.52663 18.0608 3.85172V12.846Z" fill="#04AA50"/>
<path d="M18.3679 2.35268L14.7511 5.80505L14.8314 5.88916L14.9155 5.96945L18.3679 2.35268ZM13.8707 1.72055H8.87072V6.72055H13.8707V1.72055ZM13.3831 0.51047L9.84754 4.046L9.9011 4.09956L9.95625 4.15147L13.3831 0.51047ZM5.11122 1.72055V6.72055H10.1112V1.72055H5.11122ZM0.632129 2.35268L4.16766 5.88821L4.20877 5.8471L4.24891 5.80505L0.632129 2.35268ZM0 12.846H5H0ZM0.632129 14.3451L4.16766 10.8095L4.12656 10.7684L4.08451 10.7283L0.632129 14.3451ZM18.3679 14.3451L14.8323 10.8095L14.7912 10.8506L14.7511 10.8927L18.3679 14.3451ZM19 3.85172H14H19ZM18.0608 12.846V17.846H23.0608V12.846H18.0608ZM18.0428 12.846V7.84602H13.0428V12.846H18.0428ZM21.9846 -1.0997C20.6647 -2.48247 18.8354 -3.27945 16.8688 -3.27945V6.72055C16.0943 6.72055 15.3124 6.39314 14.7511 5.80505L21.9846 -1.0997ZM16.8688 -3.27945H13.8707V6.72055H16.8688V-3.27945ZM18.8707 1.72055V1.68442H8.87072V1.72055H18.8707ZM18.8707 1.68442C18.8707 -0.0435388 18.1929 -1.82884 16.8099 -3.13053L9.95625 4.15147C9.18728 3.42773 8.87072 2.50935 8.87072 1.68442H18.8707ZM16.9186 -3.02506C15.7012 -4.24249 14.0248 -4.97717 12.2091 -4.97717V5.02283C11.2965 5.02283 10.4509 4.64936 9.84754 4.046L16.9186 -3.02506ZM12.2091 -4.97717H6.79087V5.02283H12.2091V-4.97717ZM6.79087 -4.97717C4.98589 -4.97717 3.30143 -4.26317 2.06332 -3.02506L9.13439 4.046C8.51036 4.67004 7.6567 5.02283 6.79087 5.02283V-4.97717ZM2.06332 -3.02506C0.845903 -1.80764 0.111216 -0.131288 0.111216 1.68442H10.1112C10.1112 2.59709 9.73775 3.44265 9.13439 4.046L2.06332 -3.02506ZM0.111216 1.68442V1.72055H10.1112V1.68442H0.111216ZM5.11122 -3.27945H2.13118V6.72055H5.11122V-3.27945ZM2.13118 -3.27945C0.164647 -3.27945 -1.66473 -2.48247 -2.98465 -1.0997L4.24891 5.80505C3.68755 6.39314 2.90569 6.72055 2.13118 6.72055V-3.27945ZM-2.9034 -1.18286C-4.13473 0.0484654 -5 1.83131 -5 3.85172H5C5 4.71625 4.64043 5.41544 4.16766 5.88821L-2.9034 -1.18286ZM-5 3.85172V12.846H5V3.85172H-5ZM-5 12.846C-5 14.8126 -4.20302 16.6419 -2.82025 17.9618L4.08451 10.7283C4.6726 11.2897 5 12.0715 5 12.846H-5ZM-2.9034 17.8806C-1.67208 19.1119 0.11076 19.9772 2.13118 19.9772V9.9772C2.9957 9.9772 3.69489 10.3368 4.16766 10.8095L-2.9034 17.8806ZM2.13118 19.9772H16.8688V9.9772H2.13118V19.9772ZM16.8688 19.9772C18.8354 19.9772 20.6647 19.1802 21.9846 17.7974L14.7511 10.8927C15.3124 10.3046 16.0943 9.9772 16.8688 9.9772V19.9772ZM21.9034 17.8806C23.1347 16.6493 24 14.8664 24 12.846H14C14 11.9815 14.3596 11.2823 14.8323 10.8095L21.9034 17.8806ZM24 12.846V3.85172H14V12.846H24ZM24 3.85172C24 1.88519 23.203 0.0558119 21.8202 -1.2641L14.9155 5.96945C14.3274 5.40809 14 4.62624 14 3.85172H24ZM18.0608 7.84602H18.0428V17.846H18.0608V7.84602ZM13.0428 12.846C13.0428 11.8136 13.4656 10.8398 14.1641 10.1413L21.2352 17.2124C22.3671 16.0804 23.0428 14.5286 23.0428 12.846H13.0428ZM14.1641 10.1413C14.8626 9.4428 15.8364 9.01998 16.8688 9.01998V19.02C18.5514 19.02 20.1032 18.3443 21.2352 17.2124L14.1641 10.1413ZM16.8688 9.01998H2.13118V19.02H16.8688V9.01998ZM2.13118 9.01998C3.16359 9.01998 4.13742 9.44279 4.83591 10.1413L-2.23515 17.2124C-1.1032 18.3443 0.448572 19.02 2.13118 19.02V9.01998ZM4.83591 10.1413C5.5344 10.8398 5.95722 11.8136 5.95722 12.846H-4.04278C-4.04278 14.5286 -3.3671 16.0804 -2.23515 17.2124L4.83591 10.1413ZM5.95722 12.846V3.85172H-4.04278V12.846H5.95722ZM5.95722 3.85172C5.95722 4.88415 5.5344 5.85797 4.83591 6.55646L-2.23515 -0.514608C-3.3671 0.617337 -4.04278 2.16911 -4.04278 3.85172H5.95722ZM4.83591 6.55646C4.13743 7.25494 3.1636 7.67777 2.13118 7.67777V-2.32223C0.448562 -2.32223 -1.10321 -1.64655 -2.23515 -0.514608L4.83591 6.55646ZM2.13118 7.67777H5.61692V-2.32223H2.13118V7.67777ZM5.61692 7.67777C8.64926 7.67777 11.1046 5.22246 11.1046 2.19013H1.10456C1.10456 -0.300383 3.12641 -2.32223 5.61692 -2.32223V7.67777ZM11.1046 2.19013V1.66636H1.10456V2.19013H11.1046ZM11.1046 1.66636C11.1046 2.67057 10.7337 3.80127 9.83877 4.69619L2.7677 -2.37487C1.61992 -1.2271 1.10456 0.264819 1.10456 1.66636H11.1046ZM9.83877 4.69619C8.94384 5.59112 7.81313 5.96199 6.80893 5.96199V-4.03801C5.4074 -4.03801 3.91548 -3.52266 2.7677 -2.37487L9.83877 4.69619ZM6.80893 5.96199H12.2091V-4.03801H6.80893V5.96199ZM12.2091 5.96199C11.2049 5.96199 10.0742 5.59113 9.17929 4.69619L16.2504 -2.37487C15.1026 -3.52266 13.6107 -4.03801 12.2091 -4.03801V5.96199ZM9.17929 4.69619C8.28436 3.80126 7.9135 2.67056 7.9135 1.66636H17.9135C17.9135 0.264832 17.3981 -1.22709 16.2504 -2.37487L9.17929 4.69619ZM7.9135 1.66636V2.19013H17.9135V1.66636H7.9135ZM7.9135 2.19013C7.9135 5.22246 10.3688 7.67777 13.4011 7.67777V-2.32223C15.8917 -2.32223 17.9135 -0.300378 17.9135 2.19013H7.9135ZM13.4011 7.67777H16.8869V-2.32223H13.4011V7.67777ZM16.8869 7.67777C15.8545 7.67777 14.8806 7.25494 14.1821 6.55646L21.2532 -0.514608C20.1213 -1.64655 18.5695 -2.32223 16.8869 -2.32223V7.67777ZM14.1821 6.55646C13.4837 5.85798 13.0608 4.88415 13.0608 3.85172H23.0608C23.0608 2.16911 22.3852 0.617335 21.2532 -0.514608L14.1821 6.55646ZM13.0608 3.85172V12.846H23.0608V3.85172H13.0608Z" fill="#04AA50" mask="url(#path-1-inside-1)"/>
<path d="M9.5001 3.90601C8.27196 3.90601 7.15219 4.41171 6.35751 5.20639C5.54477 6.01912 5.05713 7.12084 5.05713 8.34897C5.05713 9.57711 5.56283 10.6969 6.35751 11.4916C7.17025 12.3043 8.27196 12.7919 9.5001 12.7919C10.7282 12.7919 11.848 12.2862 12.6427 11.4916C13.4554 10.6788 13.9431 9.57711 13.9431 8.34897C13.9431 7.12084 13.4374 6.00106 12.6427 5.20639C11.848 4.41171 10.7282 3.90601 9.5001 3.90601ZM11.9564 10.8233C11.3242 11.4374 10.4573 11.8347 9.5001 11.8347C8.54287 11.8347 7.67595 11.4374 7.04382 10.8233C6.41169 10.1912 6.03242 9.32426 6.03242 8.36703C6.03242 7.40981 6.42975 6.54289 7.04382 5.91076C7.67595 5.27863 8.54287 4.89935 9.5001 4.89935C10.4573 4.89935 11.3242 5.29669 11.9564 5.91076C12.5885 6.54289 12.9678 7.40981 12.9678 8.36703C12.9858 9.32426 12.5885 10.1912 11.9564 10.8233Z" fill="#04AA50"/>
<path d="M15.9297 5.65778C16.4184 5.65778 16.8146 5.26156 16.8146 4.7728C16.8146 4.28404 16.4184 3.88782 15.9297 3.88782C15.4409 3.88782 15.0447 4.28404 15.0447 4.7728C15.0447 5.26156 15.4409 5.65778 15.9297 5.65778Z" fill="#04AA50"/>
</svg>
