<svg width="10" height="10" viewBox="0 0 10 10" fill="none" xmlns="http://www.w3.org/2000/svg">
<g clip-path="url(#clip0)">
<path d="M2.23821 9.79782C2.12865 9.79782 2.01985 9.76364 1.927 9.6965C1.75404 9.57115 1.67324 9.35569 1.72032 9.14778L2.36364 6.31392L0.181885 4.40057C0.0215113 4.26057 -0.0397543 4.03886 0.0260891 3.83598C0.0919325 3.6335 0.271075 3.49014 0.483178 3.47053L3.36991 3.20845L4.51122 0.53756C4.59537 0.341327 4.78703 0.2146 4.99997 0.2146C5.21291 0.2146 5.40457 0.341327 5.48872 0.537102L6.63003 3.20845L9.51631 3.47053C9.72887 3.48968 9.90801 3.6335 9.97385 3.83598C10.0397 4.03847 9.97881 4.26057 9.81844 4.40057L7.63668 6.31354L8.28001 9.14732C8.32716 9.35569 8.24629 9.57115 8.0734 9.69612C7.90089 9.82109 7.67086 9.83071 7.4892 9.72153L4.99997 8.23399L2.51074 9.72237C2.42659 9.77234 2.33282 9.79782 2.23821 9.79782ZM4.99997 7.59318C5.09458 7.59318 5.18827 7.61858 5.2725 7.66856L7.62173 9.07362L7.01456 6.39892C6.97123 6.20856 7.03585 6.00981 7.18295 5.88102L9.24302 4.07433L6.5175 3.82683C6.32126 3.8089 6.1525 3.68553 6.07582 3.50471L4.99997 0.984196L3.92283 3.50509C3.84699 3.68469 3.67822 3.80806 3.48245 3.82599L0.756546 4.07349L2.81654 5.88018C2.96409 6.00935 3.02864 6.20772 2.98492 6.39854L2.37822 9.07316L4.72744 7.66856C4.8116 7.61858 4.90536 7.59318 4.99997 7.59318ZM3.34786 3.2601C3.34786 3.2601 3.34786 3.26056 3.3474 3.26094L3.34786 3.2601ZM6.65124 3.25888L6.6517 3.25972C6.6517 3.25926 6.6517 3.25926 6.65124 3.25888Z" fill="#323234"/>
</g>
<defs>
<clipPath id="clip0">
<rect width="10" height="10" fill="white"/>
</clipPath>
</defs>
</svg>
